<svg data-svg="burger"
    xmlns="http://www.w3.org/2000/svg" xml:space="preserve" viewBox="19 19 62 62">
    <!-- First line -->
    <path d="M20.856 25h53.247c.45 0 .887-.153 1.239-.435l5.041-4.032c1.464-1.171.636-3.533-1.239-3.533H25.897c-.45 0-.887.153-1.239.435l-5.041 4.032c-1.465 1.171-.636 3.533 1.239 3.533z"></path>
    <!-- Second line -->
    <path d="M20.856 45h53.247c.45 0 .887-.153 1.239-.435l5.041-4.032c1.465-1.171.636-3.533-1.239-3.533H25.897c-.45 0-.887.153-1.239.435l-5.041 4.032c-1.465 1.171-.636 3.533 1.239 3.533z"></path>
    <!-- Third line -->
    <path d="M20.856 65h53.247c.45 0 .887-.153 1.239-.435l5.041-4.032c1.464-1.171.636-3.533-1.239-3.533H25.897c-.45 0-.887.153-1.239.435l-5.041 4.032c-1.465 1.171-.636 3.533 1.239 3.533z"></path>
</svg>
